Coordinates
version=1
nRows=54
nColumns=12
inDegrees=yes

Units are S.I. units (second, meters, Newtons, ...)
Angles are in degrees

endheader
time	SC_y	SC_z	SC_x	AC_y	AC_z	AC_x	GH_y	GH_z	GH_yy	EL_x	PS_y
       0.0              -52.67          5.046          51.77           34.8         -14.94         -18.24         -36.15         -7.207          12.28          65.84          112.5
   0.04146              -52.67          5.048          51.77           34.8         -14.94         -18.24         -36.16           -7.2          12.28          65.84          112.5
   0.08292              -52.68           5.05          51.76          34.81         -14.94         -18.24         -36.16         -7.192          12.29          65.84          112.5
    0.1244              -52.68          5.052          51.75          34.81         -14.93         -18.24         -36.17         -7.184          12.29          65.83          112.5
    0.1658              -52.68          5.054          51.75          34.81         -14.93         -18.23         -36.18         -7.175           12.3          65.83          112.5
    0.2073              -52.68          5.057          51.74          34.81         -14.92         -18.23         -36.18         -7.166           12.3          65.83          112.5
    0.2488              -52.68           5.06          51.73          34.82         -14.92         -18.23         -36.19         -7.157          12.31          65.82          112.4
    0.2902              -52.68          5.063          51.72          34.82         -14.91         -18.23          -36.2         -7.146          12.31          65.82          112.4
    0.3317              -52.68          5.066          51.71          34.82         -14.91         -18.23          -36.2         -7.135          12.32          65.82          112.4
    0.3731              -52.68          5.069           51.7          34.83          -14.9         -18.23         -36.21         -7.123          12.33          65.81          112.4
    0.4146              -52.68          5.072          51.69          34.83         -14.89         -18.23         -36.22          -7.11          12.33          65.81          112.4
     0.456              -52.69          5.076          51.67          34.84         -14.89         -18.23         -36.23         -7.096          12.34           65.8          112.4
    0.4975              -52.69           5.08          51.66          34.84         -14.88         -18.23         -36.24         -7.081          12.35           65.8          112.3
     0.539              -52.69          5.085          51.65          34.85         -14.87         -18.23         -36.25         -7.065          12.36          65.79          112.3
    0.5804              -52.69           5.09          51.63          34.85         -14.86         -18.23         -36.26         -7.048          12.37          65.79          112.3
    0.6219              -52.69          5.095          51.61          34.86         -14.85         -18.22         -36.28         -7.029          12.38          65.78          112.3
    0.6633              -52.69            5.1          51.59          34.87         -14.84         -18.22         -36.29         -7.008          12.39          65.77          112.3
    0.7048               -52.7          5.107          51.57          34.87         -14.83         -18.22         -36.31         -6.986           12.4          65.77          112.2
    0.7463               -52.7          5.113          51.55          34.88         -14.82         -18.22         -36.32         -6.961          12.42          65.76          112.2
    0.7877               -52.7          5.121          51.53          34.89         -14.81         -18.22         -36.34         -6.934          12.43          65.75          112.2
    0.8292               -52.7          5.129           51.5           34.9         -14.79         -18.21         -36.36         -6.905          12.45          65.74          112.1
    0.8706              -52.71          5.138          51.47          34.91         -14.77         -18.21         -36.38         -6.873          12.47          65.73          112.1
    0.9121              -52.71          5.147          51.44          34.92         -14.76         -18.21         -36.41         -6.837          12.49          65.71          112.0
    0.9535              -52.72          5.158           51.4          34.94         -14.74         -18.21         -36.43         -6.797          12.51           65.7          112.0
     0.995              -52.72           5.17          51.36          34.95         -14.71          -18.2         -36.46         -6.753          12.54          65.69          111.9
     1.036              -52.72          5.184          51.32          34.97         -14.69          -18.2          -36.5         -6.704          12.56          65.67          111.9
     1.078              -52.73          5.199          51.27          34.98         -14.66          -18.2         -36.54         -6.649           12.6          65.65          111.8
     1.119              -52.74          5.216          51.21           35.0         -14.63         -18.19         -36.58         -6.587          12.63          65.63          111.7
     1.161              -52.74          5.235          51.15          35.03         -14.59         -18.19         -36.63         -6.517          12.67           65.6          111.6
     1.202              -52.75          5.257          51.08          35.05         -14.55         -18.18         -36.68         -6.437          12.72          65.58          111.5
     1.244              -52.76          5.282          50.99          35.08         -14.51         -18.17         -36.74         -6.347          12.77          65.55          111.4
     1.285              -52.77           5.31           50.9          35.12         -14.45         -18.17         -36.81         -6.243          12.83          65.51          111.3
     1.327              -52.78          5.343          50.79          35.16         -14.39         -18.16          -36.9         -6.122           12.9          65.47          111.2
     1.368               -52.8          5.382          50.66           35.2         -14.32         -18.15         -36.99         -5.983          12.98          65.42          111.0
      1.41              -52.81          5.427          50.51          35.26         -14.24         -18.13          -37.1         -5.819          13.07          65.36          110.8
     1.451              -52.83          5.479          50.34          35.32         -14.14         -18.12         -37.23         -5.626          13.18           65.3          110.5
     1.493              -52.86          5.542          50.13           35.4         -14.02          -18.1         -37.39         -5.397          13.31          65.22          110.3
     1.534              -52.88          5.617          49.88          35.49         -13.88         -18.08         -37.58         -5.123          13.46          65.12          109.9
     1.575              -52.92          5.709          49.58          35.59         -13.71         -18.06         -37.81         -4.791          13.65          65.01          109.5
     1.617              -52.96           5.82          49.21          35.73         -13.51         -18.03         -38.08         -4.385          13.89          64.87          109.0
     1.658              -53.01          5.957          48.76          35.89         -13.25         -17.99         -38.42         -3.885          14.17           64.7          108.4
       1.7              -53.07          6.128          48.19           36.1         -12.94         -17.95         -38.85          -3.26          14.53          64.48          107.6
     1.741              -53.15          6.344          47.47          36.36         -12.54         -17.89         -39.39         -2.474          14.97          64.21          106.6
     1.783              -53.25          6.618          46.56          36.68         -12.03         -17.81         -40.07         -1.474          15.54          63.87          105.4
     1.824              -53.38          6.969           45.4           37.1         -11.38         -17.72         -40.95        -0.1941          16.27          63.43          103.8
     1.866              -53.54           7.42          43.91          37.64         -10.54          -17.6         -42.07          1.448          17.21          62.87          101.8
     1.907              -53.75          7.995           42.0          38.33         -9.472         -17.44          -43.5          3.546           18.4          62.15          99.18
     1.949              -54.02          8.719           39.6           39.2          -8.13         -17.25          -45.3          6.184          19.91          61.24          95.91
      1.99              -54.34            9.6          36.68          40.25         -6.494         -17.01          -47.5          9.398          21.74          60.13          91.93
     2.031              -54.72          10.62           33.3          41.48         -4.598         -16.74         -50.04          13.12          23.86          58.85          87.31
     2.073              -55.12          11.73          29.63           42.8         -2.545         -16.44          -52.8          17.16          26.16          57.47          82.31
     2.114              -55.53          12.84          25.96          44.13        -0.4922         -16.14         -55.56          21.19          28.46          56.08          77.31
     2.156               -55.9          13.86          22.57          45.35          1.404         -15.87          -58.1          24.92          30.58           54.8          72.69
     2.197              -56.22          14.74          19.65          46.41          3.039         -15.63          -60.3          28.13          32.41           53.7          68.71
